<svg width="258" height="258" viewBox="0 0 258 258" fill="none" xmlns="http://www.w3.org/2000/svg">
<rect width="258" height="258" fill="#F5F5F5"/>
<g filter="url(#filter0_d_0_1)">
<rect x="4" width="250" height="250" rx="11" fill="#1CBE7A"/>
</g>
<path d="M105.775 237V193.364H122.991C126.286 193.364 129.099 193.953 131.428 195.132C133.772 196.297 135.555 197.952 136.776 200.097C138.012 202.227 138.63 204.734 138.63 207.618C138.63 210.516 138.005 213.009 136.755 215.097C135.505 217.17 133.694 218.761 131.322 219.869C128.964 220.977 126.109 221.531 122.757 221.531H111.23V214.116H121.265C123.026 214.116 124.49 213.875 125.654 213.392C126.819 212.909 127.686 212.185 128.254 211.219C128.836 210.253 129.127 209.053 129.127 207.618C129.127 206.169 128.836 204.947 128.254 203.953C127.686 202.959 126.812 202.206 125.633 201.695C124.468 201.169 122.998 200.906 121.222 200.906H115.001V237H105.775ZM129.34 217.142L140.186 237H130.001L119.39 217.142H129.34ZM165.37 211.581V218.783H145.47V211.581H165.37ZM190.747 193.364H199.866V223.79C199.866 226.602 199.234 229.045 197.97 231.119C196.72 233.193 194.98 234.791 192.749 235.913C190.519 237.036 187.927 237.597 184.972 237.597C182.345 237.597 179.958 237.135 177.813 236.212C175.683 235.274 173.992 233.854 172.742 231.95C171.492 230.033 170.874 227.625 170.889 224.727H180.072C180.1 225.878 180.335 226.865 180.775 227.689C181.23 228.499 181.847 229.124 182.629 229.564C183.424 229.99 184.362 230.203 185.441 230.203C186.578 230.203 187.536 229.962 188.318 229.479C189.113 228.982 189.717 228.257 190.129 227.305C190.541 226.354 190.747 225.182 190.747 223.79V193.364ZM231.166 205.913C230.995 204.195 230.264 202.859 228.971 201.908C227.678 200.956 225.924 200.48 223.708 200.48C222.203 200.48 220.931 200.693 219.894 201.119C218.857 201.531 218.062 202.107 217.508 202.845C216.968 203.584 216.698 204.422 216.698 205.359C216.67 206.141 216.833 206.822 217.188 207.405C217.558 207.987 218.062 208.491 218.701 208.918C219.34 209.33 220.079 209.692 220.917 210.004C221.755 210.303 222.65 210.558 223.602 210.771L227.522 211.709C229.426 212.135 231.173 212.703 232.764 213.413C234.355 214.124 235.732 214.997 236.897 216.034C238.062 217.071 238.964 218.293 239.603 219.699C240.257 221.105 240.59 222.717 240.605 224.536C240.59 227.206 239.909 229.521 238.559 231.482C237.224 233.428 235.292 234.94 232.764 236.02C230.249 237.085 227.217 237.618 223.666 237.618C220.143 237.618 217.075 237.078 214.461 235.999C211.862 234.919 209.83 233.321 208.367 231.205C206.919 229.074 206.159 226.439 206.088 223.3H215.015C215.115 224.763 215.534 225.984 216.272 226.964C217.025 227.93 218.026 228.662 219.276 229.159C220.541 229.642 221.968 229.884 223.559 229.884C225.122 229.884 226.478 229.656 227.629 229.202C228.794 228.747 229.695 228.115 230.335 227.305C230.974 226.496 231.294 225.565 231.294 224.514C231.294 223.534 231.002 222.71 230.42 222.043C229.852 221.375 229.014 220.807 227.906 220.338C226.812 219.869 225.47 219.443 223.879 219.06L219.127 217.866C215.448 216.972 212.544 215.572 210.413 213.669C208.282 211.766 207.224 209.202 207.238 205.977C207.224 203.335 207.927 201.027 209.347 199.053C210.782 197.078 212.749 195.537 215.249 194.429C217.749 193.321 220.59 192.767 223.772 192.767C227.011 192.767 229.838 193.321 232.252 194.429C234.681 195.537 236.57 197.078 237.92 199.053C239.269 201.027 239.965 203.314 240.008 205.913H231.166Z" fill="white"/>
<defs>
<filter id="filter0_d_0_1" x="0" y="0" width="258" height="258" filterUnits="userSpaceOnUse" color-interpolation-filters="sRGB">
<feFlood flood-opacity="0" result="BackgroundImageFix"/>
<feColorMatrix in="SourceAlpha" type="matrix" values="0 0 0 0 0 0 0 0 0 0 0 0 0 0 0 0 0 0 127 0" result="hardAlpha"/>
<feOffset dy="4"/>
<feGaussianBlur stdDeviation="2"/>
<feComposite in2="hardAlpha" operator="out"/>
<feColorMatrix type="matrix" values="0 0 0 0 0 0 0 0 0 0 0 0 0 0 0 0 0 0 0.25 0"/>
<feBlend mode="normal" in2="BackgroundImageFix" result="effect1_dropShadow_0_1"/>
<feBlend mode="normal" in="SourceGraphic" in2="effect1_dropShadow_0_1" result="shape"/>
</filter>
</defs>
</svg>
