<svg width="194" height="118" viewBox="0 0 194 118" fill="none" xmlns="http://www.w3.org/2000/svg">
<path d="M0.0973011 44V0.363635H17.3132C20.6087 0.363635 23.4212 0.953124 25.7507 2.1321C28.0945 3.29687 29.8771 4.9517 31.0987 7.09659C32.3345 9.22727 32.9524 11.7344 32.9524 14.6179C32.9524 17.5156 32.3274 20.0085 31.0774 22.0966C29.8274 24.1705 28.0163 25.7614 25.6442 26.8693C23.2862 27.9773 20.4311 28.5312 17.0788 28.5312H5.55185V21.1165H15.5874C17.3487 21.1165 18.8118 20.875 19.9766 20.392C21.1413 19.9091 22.0078 19.1847 22.576 18.2188C23.1584 17.2528 23.4496 16.0526 23.4496 14.6179C23.4496 13.169 23.1584 11.9474 22.576 10.9531C22.0078 9.95881 21.1342 9.20596 19.9553 8.6946C18.7905 8.16903 17.3203 7.90625 15.5447 7.90625H9.32315V44H0.0973011ZM23.6626 24.142L34.5078 44H24.3232L13.7124 24.142H23.6626ZM60.2891 30.0653V11.2727H69.3658V44H60.6513V38.0554H60.3104C59.5717 39.973 58.343 41.5142 56.6243 42.679C54.9197 43.8437 52.8388 44.4261 50.3814 44.4261C48.1939 44.4261 46.2692 43.929 44.6072 42.9347C42.9453 41.9403 41.6456 40.527 40.7081 38.6946C39.7848 36.8622 39.3161 34.6676 39.3018 32.1108V11.2727H48.3786V30.4915C48.3928 32.4233 48.9112 33.9503 49.9339 35.0724C50.9567 36.1946 52.3274 36.7557 54.0462 36.7557C55.1399 36.7557 56.1626 36.5071 57.1143 36.0099C58.0661 35.4986 58.8331 34.7457 59.4155 33.7514C60.0121 32.7571 60.3033 31.5284 60.2891 30.0653ZM91.413 44.6392C88.0607 44.6392 85.1772 43.929 82.7624 42.5085C80.3619 41.0739 78.5153 39.0852 77.2227 36.5426C75.9442 34 75.305 31.0739 75.305 27.7642C75.305 24.4119 75.9513 21.4716 77.244 18.9432C78.5508 16.4006 80.4045 14.419 82.805 12.9986C85.2056 11.5639 88.0607 10.8466 91.3704 10.8466C94.2255 10.8466 96.7255 11.3651 98.8704 12.402C101.015 13.4389 102.713 14.8949 103.963 16.7699C105.213 18.6449 105.902 20.8466 106.029 23.375H97.4641C97.2227 21.7415 96.5835 20.4276 95.5465 19.4332C94.5238 18.4247 93.1815 17.9205 91.5195 17.9205C90.1133 17.9205 88.8846 18.304 87.8335 19.071C86.7965 19.8239 85.9869 20.9247 85.4045 22.3736C84.8221 23.8224 84.5309 25.5767 84.5309 27.6364C84.5309 29.7244 84.815 31.5 85.3832 32.9631C85.9656 34.4261 86.7823 35.5412 87.8335 36.3082C88.8846 37.0753 90.1133 37.4588 91.5195 37.4588C92.5565 37.4588 93.4869 37.2457 94.3107 36.8196C95.1488 36.3935 95.8377 35.7756 96.3775 34.9659C96.9315 34.142 97.2937 33.1548 97.4641 32.0043H106.029C105.887 34.5043 105.206 36.706 103.984 38.6094C102.777 40.4986 101.108 41.9759 98.9769 43.0412C96.8462 44.1065 94.3249 44.6392 91.413 44.6392ZM132.828 30.0653V11.2727H141.905V44H133.19V38.0554H132.849C132.111 39.973 130.882 41.5142 129.163 42.679C127.459 43.8437 125.378 44.4261 122.92 44.4261C120.733 44.4261 118.808 43.929 117.146 42.9347C115.484 41.9403 114.185 40.527 113.247 38.6946C112.324 36.8622 111.855 34.6676 111.841 32.1108V11.2727H120.918V30.4915C120.932 32.4233 121.45 33.9503 122.473 35.0724C123.496 36.1946 124.866 36.7557 126.585 36.7557C127.679 36.7557 128.702 36.5071 129.653 36.0099C130.605 35.4986 131.372 34.7457 131.955 33.7514C132.551 32.7571 132.842 31.5284 132.828 30.0653ZM158.242 0.363635V44H149.165V0.363635H158.242ZM174.845 44.6179C172.757 44.6179 170.896 44.2557 169.263 43.5312C167.629 42.7926 166.337 41.706 165.385 40.2713C164.447 38.8224 163.979 37.0185 163.979 34.8594C163.979 33.0412 164.313 31.5142 164.98 30.2784C165.648 29.0426 166.557 28.0483 167.707 27.2955C168.858 26.5426 170.165 25.9744 171.628 25.5909C173.105 25.2074 174.653 24.9375 176.273 24.7812C178.176 24.5824 179.71 24.3977 180.875 24.2273C182.04 24.0426 182.885 23.7727 183.411 23.4176C183.936 23.0625 184.199 22.5369 184.199 21.8409V21.7131C184.199 20.3636 183.773 19.3196 182.92 18.581C182.082 17.8423 180.889 17.473 179.341 17.473C177.707 17.473 176.408 17.8352 175.442 18.5597C174.476 19.2699 173.837 20.1648 173.524 21.2443L165.129 20.5625C165.555 18.5739 166.393 16.8551 167.643 15.4062C168.893 13.9432 170.506 12.821 172.48 12.0398C174.469 11.2443 176.77 10.8466 179.384 10.8466C181.202 10.8466 182.942 11.0597 184.604 11.4858C186.28 11.9119 187.764 12.5724 189.057 13.4673C190.364 14.3622 191.393 15.5128 192.146 16.919C192.899 18.3111 193.276 19.9801 193.276 21.9261V44H184.668V39.4616H184.412C183.886 40.4844 183.183 41.3864 182.303 42.1676C181.422 42.9347 180.364 43.5384 179.128 43.9787C177.892 44.4048 176.464 44.6179 174.845 44.6179ZM177.445 38.3537C178.78 38.3537 179.959 38.0909 180.982 37.5653C182.004 37.0256 182.807 36.3011 183.389 35.392C183.972 34.483 184.263 33.4531 184.263 32.3026V28.8295C183.979 29.0142 183.588 29.1847 183.091 29.3409C182.608 29.483 182.061 29.6179 181.45 29.7457C180.839 29.8594 180.229 29.9659 179.618 30.0653C179.007 30.1506 178.453 30.2287 177.956 30.2997C176.891 30.456 175.96 30.7045 175.165 31.0455C174.369 31.3864 173.751 31.848 173.311 32.4304C172.871 32.9986 172.651 33.7088 172.651 34.5611C172.651 35.7969 173.098 36.7415 173.993 37.3949C174.902 38.0341 176.053 38.3537 177.445 38.3537ZM80.9966 73.3636H90.1159V103.79C90.1159 106.602 89.4838 109.045 88.2196 111.119C86.9696 113.193 85.2296 114.791 82.9995 115.913C80.7694 117.036 78.177 117.597 75.2225 117.597C72.5946 117.597 70.2083 117.135 68.0634 116.212C65.9327 115.274 64.2424 113.854 62.9924 111.95C61.7424 110.033 61.1245 107.625 61.1387 104.727H70.3219C70.3503 105.878 70.5847 106.865 71.025 107.689C71.4796 108.499 72.0975 109.124 72.8787 109.564C73.6742 109.99 74.6117 110.203 75.6912 110.203C76.8276 110.203 77.7864 109.962 78.5676 109.479C79.3631 108.982 79.9668 108.257 80.3787 107.305C80.7907 106.354 80.9966 105.182 80.9966 103.79V73.3636ZM121.416 85.9134C121.245 84.1946 120.514 82.8594 119.221 81.9077C117.928 80.956 116.174 80.4801 113.958 80.4801C112.453 80.4801 111.181 80.6932 110.144 81.1193C109.107 81.5312 108.312 82.1065 107.758 82.8452C107.218 83.5838 106.948 84.4219 106.948 85.3594C106.92 86.1406 107.083 86.8224 107.438 87.4048C107.808 87.9872 108.312 88.4915 108.951 88.9176C109.59 89.3295 110.329 89.6918 111.167 90.0043C112.005 90.3026 112.9 90.5582 113.852 90.7713L117.772 91.7088C119.676 92.1349 121.423 92.7031 123.014 93.4134C124.605 94.1236 125.982 94.9972 127.147 96.0341C128.312 97.071 129.214 98.2926 129.853 99.6989C130.507 101.105 130.84 102.717 130.855 104.536C130.84 107.206 130.159 109.521 128.809 111.482C127.474 113.428 125.542 114.94 123.014 116.02C120.499 117.085 117.467 117.618 113.916 117.618C110.393 117.618 107.325 117.078 104.711 115.999C102.112 114.919 100.08 113.321 98.6174 111.205C97.1685 109.074 96.4086 106.439 96.3375 103.3H105.265C105.365 104.763 105.784 105.984 106.522 106.964C107.275 107.93 108.276 108.662 109.526 109.159C110.791 109.642 112.218 109.884 113.809 109.884C115.372 109.884 116.728 109.656 117.879 109.202C119.044 108.747 119.945 108.115 120.585 107.305C121.224 106.496 121.544 105.565 121.544 104.514C121.544 103.534 121.252 102.71 120.67 102.043C120.102 101.375 119.264 100.807 118.156 100.338C117.062 99.8693 115.72 99.4432 114.129 99.0597L109.377 97.8665C105.698 96.9716 102.794 95.5724 100.663 93.669C98.5321 91.7656 97.4739 89.2017 97.4881 85.9773C97.4739 83.3352 98.177 81.027 99.5975 79.0526C101.032 77.0781 102.999 75.5369 105.499 74.429C107.999 73.321 110.84 72.767 114.022 72.767C117.261 72.767 120.088 73.321 122.502 74.429C124.931 75.5369 126.82 77.0781 128.17 79.0526C129.519 81.027 130.215 83.3139 130.258 85.9134H121.416Z" fill="#15C771"/>
</svg>
